<svg width="510" height="817" viewBox="0 0 510 817" fill="none" xmlns="http://www.w3.org/2000/svg">
<g filter="url(#filter0_dii_105_6)">
<circle cx="109.5" cy="222.5" r="54.5" stroke="#50B1D8" stroke-width="30" shape-rendering="crispEdges"/>
</g>
<g filter="url(#filter1_dii_105_6)">
<path d="M362.84 282.113C345.457 282.113 330.027 285.531 316.551 292.367C303.27 299.008 292.039 308.676 282.859 321.371C273.875 334.066 267.039 349.398 262.352 367.367C257.664 385.336 255.32 405.551 255.32 428.012C255.32 458.285 259.031 484.164 266.453 505.648C274.07 526.938 285.789 543.246 301.609 554.574C317.43 565.707 337.84 571.273 362.84 571.273C380.223 571.273 397.605 569.32 414.988 565.414C432.566 561.508 451.609 555.941 472.117 548.715V624.887C453.172 632.699 434.52 638.266 416.16 641.586C397.801 645.102 377.195 646.859 354.344 646.859C310.203 646.859 273.875 637.777 245.359 619.613C217.039 601.254 196.043 575.668 182.371 542.855C168.699 509.848 161.863 471.371 161.863 427.426C161.863 395.004 166.258 365.316 175.047 338.363C183.836 311.41 196.727 288.07 213.719 268.344C230.711 248.617 251.707 233.383 276.707 222.641C301.707 211.898 330.418 206.527 362.84 206.527C384.129 206.527 405.418 209.262 426.707 214.73C448.191 220.004 468.699 227.328 488.23 236.703L458.934 310.531C442.918 302.914 426.805 296.273 410.594 290.609C394.383 284.945 378.465 282.113 362.84 282.113Z" fill="#50B1D8"/>
</g>
<defs>
<filter id="filter0_dii_105_6" x="0" y="153" width="180" height="179" filterUnits="userSpaceOnUse" color-interpolation-filters="sRGB">
<feFlood flood-opacity="0" result="BackgroundImageFix"/>
<feColorMatrix in="SourceAlpha" type="matrix" values="0 0 0 0 0 0 0 0 0 0 0 0 0 0 0 0 0 0 127 0" result="hardAlpha"/>
<feOffset dx="-20" dy="20"/>
<feGaussianBlur stdDeviation="10"/>
<feComposite in2="hardAlpha" operator="out"/>
<feColorMatrix type="matrix" values="0 0 0 0 0 0 0 0 0 0 0 0 0 0 0 0 0 0 0.25 0"/>
<feBlend mode="normal" in2="BackgroundImageFix" result="effect1_dropShadow_105_6"/>
<feBlend mode="normal" in="SourceGraphic" in2="effect1_dropShadow_105_6" result="shape"/>
<feColorMatrix in="SourceAlpha" type="matrix" values="0 0 0 0 0 0 0 0 0 0 0 0 0 0 0 0 0 0 127 0" result="hardAlpha"/>
<feOffset dx="1"/>
<feGaussianBlur stdDeviation="1"/>
<feComposite in2="hardAlpha" operator="arithmetic" k2="-1" k3="1"/>
<feColorMatrix type="matrix" values="0 0 0 0 0.0698438 0 0 0 0 0.463408 0 0 0 0 0.620833 0 0 0 0.8 0"/>
<feBlend mode="normal" in2="shape" result="effect2_innerShadow_105_6"/>
<feColorMatrix in="SourceAlpha" type="matrix" values="0 0 0 0 0 0 0 0 0 0 0 0 0 0 0 0 0 0 127 0" result="hardAlpha"/>
<feOffset dx="-1"/>
<feGaussianBlur stdDeviation="2.5"/>
<feComposite in2="hardAlpha" operator="arithmetic" k2="-1" k3="1"/>
<feColorMatrix type="matrix" values="0 0 0 0 0.958333 0 0 0 0 0.926389 0 0 0 0 0.926389 0 0 0 0.7 0"/>
<feBlend mode="normal" in2="effect2_innerShadow_105_6" result="effect3_innerShadow_105_6"/>
</filter>
<filter id="filter1_dii_105_6" x="121.863" y="206.527" width="368.367" height="480.332" filterUnits="userSpaceOnUse" color-interpolation-filters="sRGB">
<feFlood flood-opacity="0" result="BackgroundImageFix"/>
<feColorMatrix in="SourceAlpha" type="matrix" values="0 0 0 0 0 0 0 0 0 0 0 0 0 0 0 0 0 0 127 0" result="hardAlpha"/>
<feOffset dx="-20" dy="20"/>
<feGaussianBlur stdDeviation="10"/>
<feComposite in2="hardAlpha" operator="out"/>
<feColorMatrix type="matrix" values="0 0 0 0 0 0 0 0 0 0 0 0 0 0 0 0 0 0 0.25 0"/>
<feBlend mode="normal" in2="BackgroundImageFix" result="effect1_dropShadow_105_6"/>
<feBlend mode="normal" in="SourceGraphic" in2="effect1_dropShadow_105_6" result="shape"/>
<feColorMatrix in="SourceAlpha" type="matrix" values="0 0 0 0 0 0 0 0 0 0 0 0 0 0 0 0 0 0 127 0" result="hardAlpha"/>
<feOffset dx="2"/>
<feGaussianBlur stdDeviation="10"/>
<feComposite in2="hardAlpha" operator="arithmetic" k2="-1" k3="1"/>
<feColorMatrix type="matrix" values="0 0 0 0 0.294118 0 0 0 0 0.607843 0 0 0 0 0.733333 0 0 0 0.7 0"/>
<feBlend mode="normal" in2="shape" result="effect2_innerShadow_105_6"/>
<feColorMatrix in="SourceAlpha" type="matrix" values="0 0 0 0 0 0 0 0 0 0 0 0 0 0 0 0 0 0 127 0" result="hardAlpha"/>
<feOffset dx="-2"/>
<feGaussianBlur stdDeviation="10"/>
<feComposite in2="hardAlpha" operator="arithmetic" k2="-1" k3="1"/>
<feColorMatrix type="matrix" values="0 0 0 0 0.293333 0 0 0 0 0.608235 0 0 0 0 0.733333 0 0 0 0.7 0"/>
<feBlend mode="normal" in2="effect2_innerShadow_105_6" result="effect3_innerShadow_105_6"/>
</filter>
</defs>
</svg>
